<svg id="Layer_1" data-name="Layer 1" xmlns="http://www.w3.org/2000/svg" viewBox="0 0 256 256"><path d="M170.18,146.81a267.21,267.21,0,0,0,.34-28.16H256V100.77H228.14c-.34-2.74-.56-5.23-1-7.69-.8-4.64-1.64-9.28-2.58-13.9-1-4.92-1.84-9.91-3.29-14.7a162.78,162.78,0,0,0-6.1-16.71,127.34,127.34,0,0,0-8.07-16.61A77,77,0,0,0,195.9,16.64,56.24,56.24,0,0,0,177.62,4,52.43,52.43,0,0,0,146,1.26a50.08,50.08,0,0,0-17.92,7.65A50.68,50.68,0,0,0,107.39.74,52.09,52.09,0,0,0,75.78,5.21a57.8,57.8,0,0,0-15.6,11.44A76.11,76.11,0,0,0,49,31.17a130,130,0,0,0-8.06,16.62,164.06,164.06,0,0,0-6.09,16.7c-1.45,4.79-2.28,9.77-3.28,14.69C30.6,83.8,29.75,88.43,29,93.07c-.42,2.46-.63,5-1,7.62H0v17.93c.77,0,1.55.14,2.32.14H85.55c-.08,9.29-.23,18.58.28,27.84q-41.65,0-83.31,0c-.84,0-1.68-.06-2.52-.1v17.93c4.6,0,9.2.11,13.81.14,4.41,0,8.82,0,13.24,0,.76,0,1.53.09,2.23.13.5,3,.87,5.85,1.49,8.65,1,4.76,2.22,9.48,3.38,14.21.65,2.65,1.27,5.32,2.12,7.91,1.36,4.1,2.76,8.2,4.41,12.18,1.87,4.51,3.92,9,6.13,13.31a47,47,0,0,0,4.93,8,152.23,152.23,0,0,0,10.38,12,47.61,47.61,0,0,0,21,12.53,52.42,52.42,0,0,0,38.26-2.73,53.67,53.67,0,0,0,6.56-3.68,54.06,54.06,0,0,0,6.7,3.76,52.47,52.47,0,0,0,39,2.56A47.88,47.88,0,0,0,194.07,241a146.93,146.93,0,0,0,10.22-11.9,51.13,51.13,0,0,0,5-8.14c2.26-4.4,4.4-8.87,6.3-13.43,1.62-3.87,2.91-7.89,4.21-11.88.86-2.66,1.5-5.39,2.17-8.1,1.13-4.54,2.3-9.07,3.29-13.63.65-2.95,1-6,1.56-9.28H256V146.81ZM153.12,22c1.69-1.21,3.56-2.83,6-1.52a32,32,0,0,1,10.19,8.65,113.78,113.78,0,0,1,8.26,12.22,78.47,78.47,0,0,1,5.66,11.8c2,5.32,3.42,10.88,5.25,16.28a135.72,135.72,0,0,1,5.16,22.88c.43,2.76.71,5.54,1.09,8.59H169.46c-.46-3.25-1.06-6.49-1.49-9.74-.19-1.45-.17-2.93-.44-4.36-1.21-6.33-2.09-12.72-4.22-18.86-1.31-3.79-2.05-7.8-3.31-11.62-1.09-3.29-2.47-6.5-3.87-9.68-1.7-3.88-3.43-7.76-5.4-11.51A78.06,78.06,0,0,0,146.36,28,43.43,43.43,0,0,1,153.12,22ZM126.36,186.83c-1.52-5.24-3-10.49-4.11-15.84a175.16,175.16,0,0,1-2.7-18.08c-.66-7.16-.93-14.37-1.12-21.57-.11-4,.45-8,.46-12a157.76,157.76,0,0,1,2.16-26.59c.86-5.1,1.9-10.17,2.88-15.25.33-1.67.64-3.35,1.12-5,1-3.26,2-6.52,3-9.75.13.44.27.88.4,1.33,1.5,5.24,2.82,10.55,4,15.89,1.09,5,1.73,10.06,2.79,15,1.73,8.19,1.78,16.49,2,24.8.07,3.61.57,7.22.47,10.82-.21,7.4-.46,14.8-1.12,22.16a172.48,172.48,0,0,1-2.7,18.08c-1.06,5.34-2.59,10.6-4.11,15.83-.57,1.95-1.13,3.9-1.71,5.84C127.47,190.65,126.92,188.74,126.36,186.83ZM62.47,92.28a134.83,134.83,0,0,1,5.15-22.87c1.83-5.4,3.25-10.95,5.26-16.28a77.42,77.42,0,0,1,5.64-11.8,115.15,115.15,0,0,1,8.26-12.21A31.43,31.43,0,0,1,97,20.47c2.59-1.37,4.51.42,6.31,1.72A43.23,43.23,0,0,1,109.76,28a83.12,83.12,0,0,0-4.37,7.08c-2,3.84-3.85,7.83-5.61,11.83a102.38,102.38,0,0,0-3.7,9.55c-1.25,3.83-2,7.84-3.33,11.63-2.11,6-2.92,12.28-4.14,18.48-.3,1.55-.27,3.17-.51,4.74-.47,3.2-1.07,6.39-1.54,9.58H61.38C61.76,97.82,62,95,62.47,92.28ZM100,235.52c-2.41,1.1-4.17-.71-5.93-1.92-6.24-4.28-10.65-10.35-14.42-16.76a110.6,110.6,0,0,1-7.25-16c-2.29-5.89-4.24-11.92-6.09-18-1-3.23-1.41-6.64-2.14-10-.38-1.77-.9-3.52-1.28-5.3-.19-.89-.21-1.81-.34-3H87.84c.78,4.51,1.6,9,2.42,13.5.26,1.42.57,2.82.91,4.22.6,2.39,1.18,4.79,1.88,7.16,1.13,3.79,2.26,7.58,3.56,11.31,1.11,3.16,2.36,6.28,3.76,9.31,2.31,5,4.46,10.15,7.32,14.83.62,1,1.29,2,2,3A28.06,28.06,0,0,1,100,235.52Zm93.07-67.64c-.37,1.72-.84,3.41-1.21,5.12-.72,3.32-1.15,6.73-2.14,10-1.84,6.06-3.79,12.1-6.08,18a111.69,111.69,0,0,1-7.25,16c-3.77,6.42-8.18,12.49-14.42,16.78-1.81,1.24-3.62,3.09-6.11,1.88a29.24,29.24,0,0,1-9.63-7.68,58.72,58.72,0,0,0,4.16-6.58c3.09-5.82,5.51-12,8-18.13,1.53-3.69,2.86-7.49,4.08-11.3a67.56,67.56,0,0,0,2.11-8.32c1.18-6.24,2.22-12.5,3.26-18.75,0,0,0-.1,0-.15h25.61C193.38,166,193.31,166.93,193.11,167.88Z"/></svg>