<svg id="Layer_1" data-name="Layer 1" xmlns="http://www.w3.org/2000/svg" viewBox="0 0 64 64"><path d="M42.54,36.7a66.11,66.11,0,0,0,.09-7H64V25.19H57c-.09-.68-.15-1.31-.25-1.92-.2-1.16-.41-2.32-.65-3.47s-.46-2.48-.82-3.68a41.75,41.75,0,0,0-1.52-4.18,33.13,33.13,0,0,0-2-4.15A18.87,18.87,0,0,0,49,4.16,14,14,0,0,0,44.41,1a13.12,13.12,0,0,0-7.92-.7A12.58,12.58,0,0,0,32,2.23a12.76,12.76,0,0,0-5.16-2A13.05,13.05,0,0,0,19,1.3a14.38,14.38,0,0,0-3.9,2.86,19.18,19.18,0,0,0-2.81,3.63,32.54,32.54,0,0,0-2,4.16A40.76,40.76,0,0,0,8.7,16.12c-.36,1.2-.57,2.45-.82,3.68s-.44,2.31-.64,3.47c-.11.61-.16,1.23-.24,1.9H0v4.48a5.65,5.65,0,0,0,.58,0H21.39c0,2.32-.06,4.64.07,7H.63l-.63,0v4.48l3.45,0H6.76c.19,0,.39,0,.56,0,.13.74.22,1.46.37,2.16.26,1.19.56,2.37.85,3.55.16.66.31,1.33.53,2,.34,1,.69,2.05,1.1,3.05s1,2.23,1.53,3.32a11.67,11.67,0,0,0,1.23,2,37.27,37.27,0,0,0,2.6,3,11.84,11.84,0,0,0,5.25,3.13A13.27,13.27,0,0,0,32,61.77a13.41,13.41,0,0,0,11.43,1.58,12,12,0,0,0,5.11-3.09,36.11,36.11,0,0,0,2.55-3,12.08,12.08,0,0,0,1.26-2c.57-1.1,1.1-2.22,1.58-3.36.4-1,.73-2,1.05-3,.21-.66.37-1.35.54-2,.29-1.13.58-2.26.83-3.4.16-.74.25-1.49.38-2.32H64V36.7ZM38.28,5.5c.42-.3.89-.71,1.5-.38a8.05,8.05,0,0,1,2.55,2.16,28.72,28.72,0,0,1,2.06,3.06,19.54,19.54,0,0,1,1.42,2.95c.5,1.33.85,2.72,1.31,4.07a33.82,33.82,0,0,1,1.29,5.72c.11.69.18,1.38.27,2.15H42.36c-.11-.82-.26-1.63-.37-2.44-.05-.36,0-.73-.11-1.09A33,33,0,0,0,40.83,17C40.5,16,40.31,15,40,14.08s-.62-1.62-1-2.42c-.42-1-.85-1.94-1.35-2.88A20.87,20.87,0,0,0,36.59,7,10.93,10.93,0,0,1,38.28,5.5ZM31.59,46.71c-.38-1.31-.76-2.63-1-4a43.2,43.2,0,0,1-.67-4.52c-.17-1.79-.24-3.6-.28-5.39,0-1,.11-2,.11-3a40,40,0,0,1,.54-6.65c.22-1.27.48-2.54.72-3.81a12.41,12.41,0,0,1,.28-1.24c.24-.82.49-1.63.76-2.44,0,.11.07.22.1.33.37,1.31.7,2.64,1,4s.44,2.52.7,3.76A33.14,33.14,0,0,1,34.3,30c0,.9.14,1.8.12,2.7-.05,1.85-.12,3.7-.28,5.54a42.84,42.84,0,0,1-.68,4.52c-.26,1.34-.65,2.65-1,4L32,48.14Zm-16-23.64a32.88,32.88,0,0,1,1.29-5.72c.45-1.35.81-2.74,1.31-4.07a19,19,0,0,1,1.41-2.95,28.68,28.68,0,0,1,2.07-3,7.79,7.79,0,0,1,2.54-2.16c.65-.35,1.13.1,1.58.43A11.12,11.12,0,0,1,27.44,7a19.13,19.13,0,0,0-1.09,1.77c-.51,1-1,2-1.4,3A23.16,23.16,0,0,0,24,14.11c-.31,1-.5,2-.83,2.9a33.83,33.83,0,0,0-1,4.62c-.07.39-.07.8-.12,1.19-.12.8-.27,1.6-.39,2.4H15.35C15.44,24.45,15.51,23.76,15.62,23.07ZM25,58.88c-.6.28-1-.18-1.48-.48a12.65,12.65,0,0,1-3.61-4.19,28.16,28.16,0,0,1-1.81-4c-.57-1.47-1.06-3-1.52-4.5-.25-.81-.36-1.66-.54-2.49-.09-.44-.22-.88-.32-1.32,0-.22-.05-.46-.08-.74H22c.2,1.12.4,2.25.61,3.37.06.35.14.71.22,1.05.15.6.3,1.2.47,1.79.28.95.57,1.9.89,2.83s.59,1.57.94,2.33a37.56,37.56,0,0,0,1.83,3.71c.16.25.33.5.5.74A6.94,6.94,0,0,1,25,58.88ZM48.28,42c-.09.43-.21.85-.31,1.28-.17.83-.28,1.68-.53,2.49-.46,1.51-.95,3-1.52,4.5a28.16,28.16,0,0,1-1.81,4,12.56,12.56,0,0,1-3.61,4.19c-.45.32-.9.78-1.52.47A6.93,6.93,0,0,1,36.57,57a15.62,15.62,0,0,0,1-1.64c.77-1.46,1.37-3,2-4.53.38-.93.71-1.87,1-2.83a16.68,16.68,0,0,0,.53-2.08c.29-1.56.55-3.12.81-4.69v0h6.4C48.35,41.49,48.33,41.73,48.28,42Z"/></svg>