<svg id="Layer_1" data-name="Layer 1" xmlns="http://www.w3.org/2000/svg" viewBox="0 0 300 300"><path d="M0,284.75V15.25c.17-.55.38-1.09.5-1.65A16.16,16.16,0,0,1,13.59.5C14.16.38,14.7.17,15.25,0h269.5c.55.17,1.09.38,1.66.5A16.16,16.16,0,0,1,299.5,13.59a15.86,15.86,0,0,0,.5,1.66v269.5c-.17.59-.4,1.18-.52,1.78a16.2,16.2,0,0,1-13,13c-.6.13-1.19.35-1.78.52h-77.5V183.8h1.63c12,0,23.92,0,35.87,0,1,0,1.45-.24,1.58-1.34.8-6.69,1.67-13.38,2.54-20.07,1-7.46,2-14.93,2.92-22.4.21-1.58.17-1.59-1.49-1.59h-43c0-.47-.06-.76-.06-1.05,0-9.54-.06-19.08,0-28.62a42.16,42.16,0,0,1,.83-7.92,14.4,14.4,0,0,1,10.65-11.72,38.1,38.1,0,0,1,10.87-1.37c7.5,0,15,0,22.5,0,1.07,0,1.44-.29,1.44-1.41q-.06-19,0-38.12c0-1.1-.41-1.41-1.44-1.51q-17.57-1.6-35.19-1.45A64.68,64.68,0,0,0,192.7,50,49,49,0,0,0,166,75.48a65.14,65.14,0,0,0-5.81,26.91c-.14,11.5,0,23-.05,34.5v1.54H122.48c-1.63,0-1.64,0-1.64,1.66v42.13c0,.48.06,1,.09,1.58h39.21v1.85q0,56.23,0,112.49c0,.62.06,1.24.1,1.86h-145c-.59-.17-1.18-.39-1.78-.52A16.21,16.21,0,0,1,.54,286.65C.4,286,.18,285.38,0,284.75Z"/></svg>
