<?xml version="1.0" encoding="utf-8"?>
<!-- Generator: Adobe Illustrator 25.0.1, SVG Export Plug-In . SVG Version: 6.00 Build 0)  -->
<svg version="1.1" id="Layer_1" xmlns="http://www.w3.org/2000/svg" xmlns:xlink="http://www.w3.org/1999/xlink" x="0px" y="0px"
	 viewBox="0 0 150 150" style="enable-background:new 0 0 150 150;" xml:space="preserve">
<path d="M0,142.4V7.6c0.1-0.3,0.2-0.5,0.2-0.8c0.6-3.3,3.2-6,6.5-6.6C7.1,0.2,7.3,0.1,7.6,0h134.8c0.3,0.1,0.5,0.2,0.8,0.2
	c3.3,0.6,6,3.2,6.5,6.5c0.1,0.3,0.2,0.6,0.2,0.8v134.8c-0.1,0.3-0.2,0.6-0.3,0.9c-0.6,3.3-3.2,5.9-6.5,6.5c-0.3,0.1-0.6,0.2-0.9,0.3
	h-38.8V91.9h0.8h17.9c0.5,0,0.7-0.1,0.8-0.7c0.4-3.3,0.8-6.7,1.3-10c0.5-3.7,1-7.5,1.5-11.2c0.1-0.8,0.1-0.8-0.7-0.8h-21.5
	c0-0.2,0-0.4,0-0.5c0-4.8,0-9.5,0-14.3c0-1.3,0.2-2.7,0.4-4c0.4-2.8,2.5-5.1,5.3-5.9c1.8-0.5,3.6-0.7,5.4-0.7H126
	c0.5,0,0.7-0.1,0.7-0.7c0-6.3,0-12.7,0-19.1c0-0.5-0.2-0.7-0.7-0.8c-5.9-0.5-11.7-0.8-17.6-0.7c-4.1,0-8.2,0.8-12.1,2.4
	c-5.9,2.3-10.7,6.9-13.3,12.7c-1.9,4.2-2.9,8.8-2.9,13.5c-0.1,5.8,0,11.5,0,17.2v0.8H61.2c-0.8,0-0.8,0-0.8,0.8v21.1
	c0,0.2,0,0.5,0,0.8h19.6v0.9c0,18.7,0,37.5,0,56.2c0,0.3,0,0.6,0.1,0.9H7.6c-0.3-0.1-0.6-0.2-0.9-0.3c-3.3-0.6-5.8-3.2-6.5-6.4
	C0.2,143,0.1,142.7,0,142.4z"/>
</svg>
