<?xml version="1.0" encoding="utf-8"?>
<!-- Generator: Adobe Illustrator 25.0.1, SVG Export Plug-In . SVG Version: 6.00 Build 0)  -->
<svg version="1.1" id="Layer_1" xmlns="http://www.w3.org/2000/svg" xmlns:xlink="http://www.w3.org/1999/xlink" x="0px" y="0px"
	 viewBox="0 0 149.7 150" style="enable-background:new 0 0 149.7 150;" xml:space="preserve">
<path d="M149.7,75c0,14,0.2,28-0.1,42c-0.2,9.3-3.4,17.5-10.3,24c-4.7,4.3-10.5,7.2-16.8,8.2c-4.5,0.8-9,0.8-13.5,0.8
	c-24.3,0-48.7,0-73-0.1c-4.8,0.1-9.7-0.7-14.3-2.3C11.1,144,3.3,135,1.1,124c-1-4.8-1.1-9.7-1.1-14.6c0-24.7,0-49.5,0.1-74.2
	C0,30.3,0.9,25.5,2.6,21c3.2-8.2,8.8-14.2,16.9-17.8c4.4-2,9.2-3,14.1-3C49.7,0.1,65.8,0,81.9,0C92.5,0,103,0,113.6,0
	c5.4,0,10.7,0.6,15.7,2.7c9.5,3.9,15.8,10.8,18.7,20.6c1.1,3.8,1.7,7.8,1.6,11.8C149.7,48.5,149.7,61.7,149.7,75L149.7,75z
	 M129.9,51.9c-0.1-3.5-0.6-7-1.6-10.4c-1.6-5.8-5-11-9.7-14.8c-4.2-3.4-9.1-5.2-14.3-6.2s-10.5-1-15.8-1c-12.2,0-24.4,0.2-36.5,0.3
	c-3.9,0.1-7.7,0.7-11.5,1.8c-5.4,1.6-10.2,4.8-13.8,9.1c-3.3,4-5.2,8.7-6.2,13.7c-1.1,5.5-1.1,11.1-1.1,16.7
	c-0.1,10.5,0,21,0.1,31.5c0,4.3,0.2,8.6,1,12.8c1.3,6.5,4.1,12.2,9.1,16.8c4,3.6,8.7,5.8,13.8,7c5,1.2,10.2,1.3,15.3,1.3
	c13.1,0,26.1,0.3,39.2-0.3c3.3-0.1,6.5-0.6,9.7-1.4c4.9-1.2,9.4-3.7,13.1-7.2c4.3-4.2,6.9-9.3,8.2-15.1c1.1-5,1.2-10.1,1.3-15.1
	C130.3,85.9,130.1,59.6,129.9,51.9L129.9,51.9z"/>
<path d="M120.4,90.7c-0.1,4.4-0.1,8.8-1,13.2c-0.9,4.1-2.6,7.8-5.7,10.7c-2.3,2.2-5.1,3.7-8.2,4.6c-2.7,0.7-5.6,1.1-8.4,1.2
	c-12.8,0.6-25.7,0.2-38.6,0.2c-4,0-7.9-0.3-11.8-0.8c-4.3-0.5-8.3-2.5-11.4-5.6c-2.8-2.9-4.6-6.6-5.3-10.6c-0.4-2.2-0.6-4.4-0.7-6.6
	c-0.7-12.6-0.3-25.2-0.3-37.8c0-4.3,0.1-8.7,1-13c0.8-3.9,2.3-7.5,5.2-10.4c2.4-2.4,5.4-4.2,8.6-5.1c2.8-0.7,5.7-1.1,8.7-1.2
	c12.7-0.6,25.3-0.3,38-0.3c4.1,0,8.1,0.3,12.2,0.8c4.3,0.5,8.3,2.4,11.4,5.5c3.4,3.4,5.1,7.6,5.7,12.3c0.3,2.7,0.5,5.4,0.5,8.1
	C120.3,62.3,120.5,85.5,120.4,90.7L120.4,90.7z M103.2,75c0-15.7-12.7-28.4-28.4-28.4c-15.7,0-28.4,12.7-28.4,28.4
	c0,15.7,12.7,28.4,28.4,28.4c15.7,0,28.4-12.6,28.4-28.3C103.2,75.1,103.2,75.1,103.2,75z M104.4,51.9c3.6,0,6.5-2.9,6.6-6.5
	c0-3.6-2.9-6.6-6.5-6.6c-3.6,0-6.6,2.9-6.6,6.5C97.9,49,100.8,51.9,104.4,51.9L104.4,51.9z"/>
<path d="M93.4,75c0,10.3-8.4,18.7-18.7,18.7c0,0-0.1,0-0.1,0c-10.2,0-18.6-8.5-18.6-18.8c0-10.2,8.5-18.6,18.8-18.6
	C85.1,56.3,93.4,64.7,93.4,75z"/>
</svg>
