<svg id="Layer_1" data-name="Layer 1" xmlns="http://www.w3.org/2000/svg" viewBox="0 0 300 300"><path d="M299.54,150c0,28,.35,56-.13,84-.32,18.6-6.81,35.06-20.68,48a64,64,0,0,1-33.51,16.32c-9,1.56-18,1.67-27.07,1.67q-73,0-146-.1a84.52,84.52,0,0,1-28.53-4.51A63.58,63.58,0,0,1,2.44,248C.38,238.33.22,228.55.23,218.74c.05-49.46,0-98.93.13-148.39A78.08,78.08,0,0,1,5.33,42C11.75,25.59,23,13.63,39.17,6.41a70,70,0,0,1,28.21-6C99.62.19,131.86.12,164.1.05c21.11,0,42.21-.1,63.32.07,10.72.09,21.37,1.24,31.41,5.39,19,7.82,31.52,21.58,37.49,41.24a80.74,80.74,0,0,1,3.28,23.66q-.08,39.81,0,79.6ZM260,103.77A83.29,83.29,0,0,0,256.87,83a57,57,0,0,0-19.38-29.6c-8.42-6.8-18.16-10.44-28.68-12.33s-21.07-1.92-31.62-1.93c-24.36,0-48.72.31-73.08.59a80.48,80.48,0,0,0-22.92,3.65A56.61,56.61,0,0,0,53.65,61.68C47,69.68,43.27,79,41.2,89.07c-2.26,11-2.14,22.19-2.26,33.31-.22,21,.06,42,.23,63,.07,8.55.33,17.1,2,25.54,2.63,13.06,8.26,24.4,18.24,33.5C67.38,251.69,76.71,256,87,258.34c10.1,2.36,20.43,2.6,30.7,2.62,26.1,0,52.22.68,78.31-.58a93.41,93.41,0,0,0,19.33-2.78,58,58,0,0,0,26.17-14.42c8.66-8.36,13.8-18.65,16.44-30.28,2.25-10,2.4-20.11,2.62-30.23C260.82,171.74,260.34,119.14,260,103.77Z"/><path d="M241.06,181.45c-.22,8.81-.13,17.68-2,26.39-1.74,8.24-5.16,15.57-11.33,21.47a38.5,38.5,0,0,1-16.34,9.13,73.92,73.92,0,0,1-16.81,2.44c-25.7,1.23-51.42.5-77.13.5a177.18,177.18,0,0,1-23.68-1.7A38.57,38.57,0,0,1,71,228.57a39.12,39.12,0,0,1-10.55-21.14A106.54,106.54,0,0,1,59,194.2c-1.35-25.16-.61-50.34-.57-75.51,0-8.7.15-17.46,1.9-26.06C62,84.75,65,77.58,70.74,71.75A38.34,38.34,0,0,1,88,61.62a77.15,77.15,0,0,1,17.32-2.46c25.31-1.24,50.63-.53,75.94-.51a189.07,189.07,0,0,1,24.36,1.69,38.47,38.47,0,0,1,22.71,11c6.8,6.79,10.11,15.25,11.34,24.54A134.08,134.08,0,0,1,240.76,112C240.91,124.67,241.32,171,241.06,181.45Zm-34.44-31.39a56.85,56.85,0,1,0-56.85,56.85A56.7,56.7,0,0,0,206.62,150.06ZM209,103.84a13.12,13.12,0,0,0,13.16-13,13.13,13.13,0,1,0-26.26-.06A13.13,13.13,0,0,0,209,103.84Z"/><path d="M187.1,150a37.35,37.35,0,0,1-37.55,37.37c-20.47,0-37.18-17-37.15-37.63,0-20.38,17-37.16,37.51-37.14A37.4,37.4,0,0,1,187.1,150Z"/></svg>
