<svg id="Layer_1" data-name="Layer 1" xmlns="http://www.w3.org/2000/svg" viewBox="0 0 300 300"><path d="M150,300q-53.71,0-107.44,0c-20.23,0-36.53-13.13-41.09-33a37.63,37.63,0,0,1-1-8.39C.44,186.84.6,115.06.36,43.27.27,18.4,20.22-.09,42,.05c32.75.2,65.51,0,98.26,0,39,0,77.94.19,116.91-.08a42.11,42.11,0,0,1,41.46,32.6,38.12,38.12,0,0,1,.93,8.39c.05,72.29-.08,144.58.13,216.86.07,22.28-18.05,42-40.44,42.07-35.22.12-70.44,0-105.66.05H150Zm9.72-167c0-2.77,0-4.89,0-7,0-4.56-2.19-7-6.64-7.07q-12.57-.15-25.15,0c-4.54.06-6.63,2.38-6.63,7q0,53.75,0,107.49c0,4.77,2,6.8,6.64,6.82q12.44,0,24.85,0c5,0,6.93-2,6.93-7.21,0-18.32-.12-36.64.06-55,.08-7.15,1.65-14.06,6-20,4.65-6.36,11.17-8.07,18.42-7,7,1,11.88,5.29,13.56,12.29a82.71,82.71,0,0,1,2.19,17.32c.25,11.83-.12,23.67-.18,35.51,0,5.87-.1,11.75.16,17.61.2,4.66,2.29,6.43,6.82,6.44h24.56c6.44,0,8.29-1.87,8.3-8.42,0-17.61.18-35.23-.08-52.83a190.18,190.18,0,0,0-1.79-24.45c-1.63-11.24-5.7-21.49-14.78-28.82-6.64-5.37-14.4-7.7-22.75-8.28C184.66,116.35,170.43,118.83,159.71,133ZM66.25,179.5q0,26.73,0,53.45c0,4.85,2.38,7.25,7.12,7.26,7.89,0,15.78,0,23.67,0,5.61,0,8-2.33,8-8q0-52.55,0-105.08c0-5.61-2.57-8.19-8-8.23q-11.53-.09-23.08,0c-5.29,0-7.72,2.63-7.72,8.07Q66.23,153.23,66.25,179.5Zm19.29-69.9a24.88,24.88,0,1,0-25-24.9A24.75,24.75,0,0,0,85.54,109.6Z"/></svg>
