<?xml version="1.0" encoding="utf-8"?>
<!-- Generator: Adobe Illustrator 25.0.1, SVG Export Plug-In . SVG Version: 6.00 Build 0)  -->
<svg version="1.1" id="Layer_1" xmlns="http://www.w3.org/2000/svg" xmlns:xlink="http://www.w3.org/1999/xlink" x="0px" y="0px"
	 viewBox="0 0 149.7 150" style="enable-background:new 0 0 149.7 150;" xml:space="preserve">
<path d="M74.8,150c-17.9,0-35.8,0-53.7,0c-10.1,0-18.3-6.6-20.5-16.5c-0.3-1.4-0.5-2.8-0.5-4.2C0,93.4,0.1,57.5,0,21.7
	C0,9.2,9.9,0,20.8,0C37.2,0.1,53.6,0,70,0c19.5,0,39,0.1,58.5,0c9.9-0.1,18.5,6.7,20.7,16.3c0.3,1.4,0.5,2.8,0.5,4.2
	c0,36.1,0,72.3,0.1,108.4c0,11.1-9,21-20.2,21c-17.6,0.1-35.2,0-52.8,0L74.8,150L74.8,150z M79.7,66.5c0-1.4,0-2.4,0-3.5
	c0-2.3-1.1-3.5-3.3-3.5c-4.2-0.1-8.4-0.1-12.6,0c-2.3,0-3.3,1.2-3.3,3.5c0,17.9,0,35.8,0,53.7c0,2.4,1,3.4,3.3,3.4
	c4.1,0,8.3,0,12.4,0c2.5,0,3.5-1,3.5-3.6c0-9.2-0.1-18.3,0-27.5c0-3.6,0.8-7,3-10c2.3-3.2,5.6-4,9.2-3.5c3.5,0.5,5.9,2.6,6.8,6.1
	c0.7,2.8,1,5.7,1.1,8.7c0.1,5.9-0.1,11.8-0.1,17.8c0,2.9-0.1,5.9,0.1,8.8c0.1,2.3,1.1,3.2,3.4,3.2h12.3c3.2,0,4.1-0.9,4.2-4.2
	c0-8.8,0.1-17.6,0-26.4c0-4.1-0.3-8.2-0.9-12.2c-0.8-5.6-2.8-10.7-7.4-14.4c-3.3-2.7-7.2-3.8-11.4-4.1C92.2,58.2,85,59.4,79.7,66.5
	L79.7,66.5z M32.9,89.8c0,8.9,0,17.8,0,26.7c0,2.4,1.2,3.6,3.6,3.6h11.8c2.8,0,4-1.2,4-4c0-17.5,0-35,0-52.5c0-2.8-1.3-4.1-4-4.1
	c-3.8,0-7.7,0-11.5,0c-2.6,0-3.9,1.3-3.9,4C32.9,72.3,32.9,81,32.9,89.8z M42.6,54.8c6.9,0,12.4-5.6,12.4-12.5
	c0-6.9-5.6-12.4-12.5-12.4c-6.8,0-12.4,5.6-12.4,12.4c0,6.8,5.5,12.4,12.3,12.5C42.5,54.8,42.5,54.8,42.6,54.8z"/>
</svg>
