<svg id="Layer_1" data-name="Layer 1" xmlns="http://www.w3.org/2000/svg" viewBox="0 0 16 16"><path d="M10.64,9.18a17.26,17.26,0,0,0,0-1.76H16V6.3H14.26q0-.25-.06-.48c0-.29-.11-.58-.16-.87s-.12-.62-.21-.92-.24-.7-.38-1a7.17,7.17,0,0,0-.51-1,4.09,4.09,0,0,0-.7-.91A3.44,3.44,0,0,0,11.1.25,3.31,3.31,0,0,0,8,.56,3,3,0,0,0,6.71.05a3.19,3.19,0,0,0-2,.28,3.41,3.41,0,0,0-1,.71,4.79,4.79,0,0,0-.7.91,7.66,7.66,0,0,0-.5,1,8.12,8.12,0,0,0-.38,1C2.09,4.33,2,4.64,2,5s-.11.58-.16.87,0,.31-.06.47H0V7.41H5.35c0,.58,0,1.16,0,1.74H0v1.12H1.83c0,.19,0,.37.09.55l.21.88c.05.17.08.34.14.5s.17.51.27.76.25.56.39.83a2.29,2.29,0,0,0,.3.5c.21.26.42.51.65.75a2.89,2.89,0,0,0,1.31.78,3.27,3.27,0,0,0,2.4-.17A2.38,2.38,0,0,0,8,15.44a3.38,3.38,0,0,0,.41.24,3.32,3.32,0,0,0,2.44.16,3,3,0,0,0,1.28-.78,7.55,7.55,0,0,0,.64-.74,3.3,3.3,0,0,0,.31-.51c.14-.27.28-.55.4-.84s.18-.49.26-.74.09-.34.14-.51.14-.56.2-.85.06-.37.1-.58H16V9.18ZM9.57,1.37c.11-.07.22-.17.38-.09a2,2,0,0,1,.63.54,7.85,7.85,0,0,1,.52.76,5.53,5.53,0,0,1,.35.74c.13.33.22.68.33,1a7.78,7.78,0,0,1,.32,1.43c0,.17.05.35.07.54H10.59L10.5,5.7a2.23,2.23,0,0,0,0-.27,9.17,9.17,0,0,0-.26-1.18c-.09-.24-.13-.49-.21-.73a5.36,5.36,0,0,0-.24-.6c-.11-.25-.22-.49-.34-.72a4.87,4.87,0,0,0-.27-.45A2.57,2.57,0,0,1,9.57,1.37ZM7.9,11.68c-.1-.33-.19-.66-.26-1s-.13-.75-.17-1.13-.06-.9-.07-1.35c0-.25,0-.5,0-.75A9.22,9.22,0,0,1,7.57,5.8q.07-.48.18-1c0-.1,0-.21.07-.31s.12-.41.19-.61A.19.19,0,0,0,8,4c.09.33.18.66.25,1s.11.63.17.94a8,8,0,0,1,.12,1.55c0,.22,0,.45,0,.68,0,.46,0,.92-.07,1.38a10.6,10.6,0,0,1-.16,1.13c-.07.33-.17.66-.26,1,0,.12-.07.24-.11.36C8,11.92,7.93,11.8,7.9,11.68Zm-4-5.91a8.49,8.49,0,0,1,.33-1.43c.11-.34.2-.69.32-1a5.6,5.6,0,0,1,.36-.74,7.75,7.75,0,0,1,.51-.76,2.07,2.07,0,0,1,.64-.54c.16-.09.28,0,.39.11a2.35,2.35,0,0,1,.41.36,4,4,0,0,0-.27.44c-.13.24-.24.49-.35.74a6.25,6.25,0,0,0-.24.6c-.07.24-.12.49-.2.72a6.7,6.7,0,0,0-.26,1.16c0,.1,0,.2,0,.3s-.07.39-.1.59H3.84C3.86,6.11,3.88,5.94,3.9,5.77Zm2.35,9c-.15.07-.26,0-.37-.12a3.25,3.25,0,0,1-.9-1,6.47,6.47,0,0,1-.45-1,10.53,10.53,0,0,1-.38-1.12c-.06-.2-.09-.41-.14-.62s0-.22-.08-.33,0-.12,0-.19H5.49l.15.85.06.26c0,.15.07.3.12.45s.14.47.22.7.15.4.23.58a8.93,8.93,0,0,0,.46.93,1.27,1.27,0,0,0,.13.19A1.76,1.76,0,0,1,6.25,14.72Zm5.82-4.23a3,3,0,0,1-.08.32c0,.21-.07.42-.13.63-.12.37-.24.75-.38,1.12a7.46,7.46,0,0,1-.45,1,3.25,3.25,0,0,1-.9,1c-.12.07-.23.19-.39.11a1.85,1.85,0,0,1-.6-.48,2.19,2.19,0,0,0,.26-.41,11.4,11.4,0,0,0,.5-1.13c.1-.23.18-.47.26-.71a3,3,0,0,0,.13-.52c.08-.39.14-.78.21-1.17h1.6C12.09,10.37,12.08,10.43,12.07,10.49Z"/></svg>