<svg id="Layer_1" data-name="Layer 1" xmlns="http://www.w3.org/2000/svg" viewBox="0 0 32 32"><path d="M21.27,18.35a34.45,34.45,0,0,0,.05-3.52H32V12.6H28.52c-.05-.35-.07-.66-.13-1-.09-.59-.2-1.17-.32-1.74a18.84,18.84,0,0,0-.41-1.84A19.31,19.31,0,0,0,26.9,6a16,16,0,0,0-1-2.08,10.18,10.18,0,0,0-1.4-1.81A7.07,7.07,0,0,0,22.2.5,6.53,6.53,0,0,0,18.25.16a6.2,6.2,0,0,0-2.24,1,6.29,6.29,0,0,0-2.59-1A6.57,6.57,0,0,0,9.47.65a7.54,7.54,0,0,0-2,1.43A9.9,9.9,0,0,0,6.12,3.9,15.24,15.24,0,0,0,5.11,6c-.28.68-.54,1.38-.76,2.09S4.07,9.28,3.94,9.9s-.22,1.15-.32,1.73c-.05.31-.08.62-.12,1H0v2.24H10.69c0,1.16,0,2.32,0,3.48H.32l-.32,0v2.24l1.73,0H3.38l.28,0c.06.37.11.73.19,1.08.13.59.27,1.18.42,1.78.08.33.16.66.26,1,.17.52.35,1,.55,1.53s.5,1.12.77,1.66a6,6,0,0,0,.62,1c.41.52.84,1,1.29,1.5a6,6,0,0,0,2.63,1.57,6.59,6.59,0,0,0,4.78-.34,7.22,7.22,0,0,0,.82-.46,8.6,8.6,0,0,0,.84.47,6.57,6.57,0,0,0,4.87.32,5.94,5.94,0,0,0,2.56-1.55c.45-.47.87-1,1.28-1.49a7,7,0,0,0,.63-1c.28-.55.55-1.11.78-1.68a15.32,15.32,0,0,0,.53-1.48c.11-.33.19-.67.27-1,.14-.57.29-1.14.41-1.71.08-.36.13-.74.2-1.16H32V18.35ZM19.14,2.75c.21-.15.45-.35.75-.19a4,4,0,0,1,1.27,1.08,14.21,14.21,0,0,1,1,1.53,9.9,9.9,0,0,1,.7,1.47c.25.67.43,1.36.66,2a16.45,16.45,0,0,1,.65,2.86c.05.34.08.69.13,1.07H21.18c-.06-.4-.13-.81-.18-1.22,0-.18,0-.36-.06-.54a16.08,16.08,0,0,0-.53-2.36C20.25,8,20.16,7.52,20,7s-.31-.81-.48-1.21-.43-1-.68-1.44a10,10,0,0,0-.54-.89A5,5,0,0,1,19.14,2.75ZM15.8,23.35c-.19-.65-.39-1.31-.52-2a21.23,21.23,0,0,1-.34-2.26c-.08-.89-.11-1.79-.14-2.69,0-.5.06-1,.06-1.51a19.48,19.48,0,0,1,.27-3.32c.11-.64.24-1.27.36-1.91,0-.2.08-.41.14-.62.12-.41.25-.81.38-1.22l0,.17c.19.66.35,1.32.5,2s.21,1.25.34,1.88a16.08,16.08,0,0,1,.25,3.1c0,.45.07.9.06,1.35,0,.92-.06,1.85-.14,2.77a21.62,21.62,0,0,1-.34,2.26c-.13.67-.32,1.32-.51,2-.07.24-.14.49-.22.73C15.93,23.83,15.86,23.59,15.8,23.35Zm-8-11.81a17.4,17.4,0,0,1,.64-2.86c.23-.68.41-1.37.66-2a9.45,9.45,0,0,1,.7-1.47,13.28,13.28,0,0,1,1-1.53,3.78,3.78,0,0,1,1.27-1.08c.32-.17.56,0,.79.21a5.14,5.14,0,0,1,.81.73c-.19.28-.38.58-.55.88-.25.48-.48,1-.7,1.48s-.33.79-.46,1.19-.25,1-.42,1.46a16.4,16.4,0,0,0-.51,2.31c0,.19,0,.39-.07.59-.06.4-.13.8-.19,1.2H7.67C7.72,12.23,7.76,11.88,7.81,11.54Zm4.69,17.9c-.3.14-.52-.09-.74-.24A6.18,6.18,0,0,1,10,27.1a13.79,13.79,0,0,1-.91-2c-.28-.74-.53-1.49-.76-2.25-.12-.4-.17-.83-.26-1.24,0-.23-.12-.44-.16-.67a3,3,0,0,1,0-.37H11l.3,1.69c0,.18.07.35.12.53s.14.6.23.89c.14.48.28.95.45,1.42s.29.78.47,1.16a16.71,16.71,0,0,0,.91,1.85c.08.13.16.26.25.38A3.5,3.5,0,0,1,12.5,29.44ZM24.14,21c-.05.21-.11.42-.15.64-.09.41-.15.84-.27,1.24-.23.76-.47,1.51-.76,2.25a14.43,14.43,0,0,1-.91,2,6.25,6.25,0,0,1-1.8,2.09c-.23.16-.45.39-.76.24a3.76,3.76,0,0,1-1.21-1,7.19,7.19,0,0,0,.52-.83c.39-.72.69-1.5,1-2.26.19-.46.36-.94.51-1.41a7.53,7.53,0,0,0,.26-1c.15-.78.28-1.57.41-2.35v0h3.2C24.17,20.74,24.16,20.87,24.14,21Z"/></svg>