<?xml version="1.0" encoding="utf-8"?>
<!-- Generator: Adobe Illustrator 25.0.0, SVG Export Plug-In . SVG Version: 6.00 Build 0)  -->
<svg version="1.1" id="Layer_1" xmlns="http://www.w3.org/2000/svg" xmlns:xlink="http://www.w3.org/1999/xlink" x="0px" y="0px"
	 viewBox="0 0 64 64" style="enable-background:new 0 0 64 64;" xml:space="preserve">
<style type="text/css">
	.st0{fill:#262623;}
</style>
<path class="st0" d="M10.7,1.6l51.7,51.7c2.1,2.1,2.1,5.6-0.1,7.8l-1.2,1.2c-2.2,2.2-5.6,2.2-7.8,0.1L1.6,10.7
	c-2.1-2.1-2.1-5.6,0.1-7.8l1.2-1.2C5.1-0.5,8.6-0.5,10.7,1.6z"/>
<path class="st0" d="M1.5,53.4L53.3,1.6c2.1-2.1,5.6-2.1,7.8,0l1.2,1.2c2.2,2.2,2.2,5.6,0,7.8L10.6,62.5c-2.1,2.1-5.6,2.1-7.8,0
	l-1.2-1.2C-0.6,59-0.6,55.5,1.5,53.4z"/>
</svg>
