<svg enable-background="new 0 0 64 64" viewBox="0 0 64 64" xmlns="http://www.w3.org/2000/svg"><g fill="#262623"><path d="m4.2 25.6h55.7c2.3 0 4.2 2.5 4.2 5.5v1.8c0 3.1-1.9 5.5-4.2 5.5h-55.7c-2.3 0-4.2-2.5-4.2-5.5v-1.8c0-3 1.9-5.5 4.2-5.5z"/><path d="m4.2-.1h55.7c2.3 0 4.2 2.5 4.2 5.5v1.8c0 3.1-1.9 5.5-4.2 5.5h-55.7c-2.3 0-4.2-2.5-4.2-5.5v-1.8c0-3 1.9-5.5 4.2-5.5z"/><path d="m4.2 51.2h55.7c2.3 0 4.2 2.5 4.2 5.5v1.8c0 3.1-1.9 5.5-4.2 5.5h-55.7c-2.3 0-4.2-2.5-4.2-5.5v-1.8c0-3 1.9-5.5 4.2-5.5z"/></g></svg>